PathFileType	4	(X/Y/Z)	OpenSim_Sub03_CSStiffKnee_Accel.trc
DataRate	CameraRate	NumFrames	NumMarkers	Units	OrigDataRate	OrigDataStartFrame	OrigNumFrames
100	100	31	8	m	100	1819	3637
Frame#	Time	torso_imu_offset_imu	pelvis_imu_offset_imu	tibia_r_imu_offset_imu	femur_r_imu_offset_imu	tibia_l_imu_offset_imu	femur_l_imu_offset_imu	toes_r_imu_offset_imu	toes_l_imu_offset_imu
				X1	Y1	Z1	X2	Y2	Z2	X3	Y3	Z3	X4	Y4	Z4	X5	Y5	Z5	X6	Y6	Z6	X7	Y7	Z7	X8		Y8	Z8	

1819	18.18000000	8.44667100	-0.50745400	3.51384000	7.76650200	2.00134300	2.69954200	9.77726700	-0.21491900	-0.41422200	8.83041500	-1.80915400	-0.12443700	11.27038900	-0.13000700	2.03203400	9.36854100	2.05983100	0.44896900	5.52687100	-2.23713000	7.99672300	6.45714100	0.36485800	14.45265300
1820	18.19000000	8.52821100	-0.29390100	3.62677500	7.79404000	2.41493900	2.63344800	9.65798600	-0.52380900	-0.14112500	9.18932600	-2.04064700	-0.24320200	11.33461500	-0.82261000	1.94382100	9.21075100	2.43363300	0.34047500	5.38781200	-2.04047800	8.07839800	6.22842500	0.64699900	14.37543600
1821	18.20000000	8.68271100	-0.02228100	3.74218900	8.13340300	2.74154500	2.37622600	9.88960900	-0.33517600	-0.00782000	9.12725200	-1.66842700	-0.08373100	11.14317700	-1.17385000	2.10738800	9.31261300	2.45073700	0.14595400	5.53238300	-1.77054100	8.10577000	6.41351400	0.67478400	14.51541700
1822	18.21000000	8.92409200	0.20145900	3.88001800	8.51596500	2.81762000	2.21140000	9.93864800	-0.38914300	0.29721200	9.27501400	-1.56044200	0.13722400	10.88809200	-1.42798500	2.21308700	9.42024500	2.25848700	0.06841900	6.05177000	-1.77950300	7.77182700	6.41482400	0.55272800	14.38188900
1823	18.22000000	9.16565300	0.41062600	3.97809000	8.86859400	2.53547200	2.13627500	9.54148100	-0.63398700	0.01256400	8.98781900	-1.38868000	0.07287900	10.94435700	-1.50196200	1.89078400	9.42762300	1.79905600	0.17226800	6.01974200	-1.70867300	7.74044000	5.93698400	0.76564200	13.90199000
1824	18.23000000	9.37320700	0.47285000	4.23233800	8.85492400	2.14688500	2.21397400	9.71770700	-0.49833200	-0.10321500	8.89413900	-1.28007700	-0.05232500	11.08883700	-1.40735400	1.88677300	9.45735200	1.30485500	0.18444800	5.80367100	-1.48909200	7.99167400	5.78471800	1.19492100	13.54528900
1825	18.24000000	9.43589300	0.60439300	4.40615500	9.08168500	2.07451300	1.99709700	9.84404200	-0.20810500	-0.36352500	9.21845000	-0.87558500	-0.10739300	10.82988500	-1.30315700	1.95473100	9.20650700	1.17569800	0.35268200	5.73925900	-1.97857400	8.09117200	6.31038000	1.39686300	13.32673600
1826	18.25000000	9.45018600	0.78176000	4.54352700	9.20032200	2.04407200	1.86426300	9.83441400	0.48911700	-1.11289100	9.68259400	-0.80489300	-0.23833200	10.46541600	-1.43033800	2.10022900	8.88840600	1.23434600	0.11993300	5.60223400	-2.18324200	7.96518800	6.54355400	1.78007500	12.90982600
1827	18.26000000	9.53980300	0.93544500	4.71446500	8.92752000	1.79363500	1.86735200	9.96631200	1.26749900	-1.56845400	9.34833600	-0.82899600	-0.41611000	10.46777900	-1.97851500	1.80001300	8.79024500	1.33807300	-0.27156600	5.88740400	-2.14400200	7.93519400	7.82028400	1.28787500	12.96201600
1828	18.27000000	9.58088700	1.11207100	4.81134500	9.09270500	1.93190900	1.59607400	9.90988700	2.01990600	-1.61042300	8.99759600	-0.78197000	-0.30604400	10.41267600	-2.70949100	1.34312000	8.61737400	1.25454400	-0.05128600	5.85055000	-1.98291900	7.92095000	8.94041000	1.17701500	12.28509800
1829	18.28000000	9.41397300	1.10869300	4.84903200	9.02840300	2.10687400	1.43009700	9.67146500	2.32579400	-1.12450700	9.13459200	-1.13773500	-0.20269000	10.20111600	-3.26635000	1.31989700	8.90543200	0.87618100	0.31948300	5.92311300	-1.85731700	7.77616100	9.10130800	1.90674200	11.78662900
1830	18.29000000	9.32229500	0.96382100	4.79473800	9.17683000	2.15449500	1.31231100	9.89920100	1.56067300	-0.79371400	9.21646900	-0.95174800	0.10686300	9.62337700	-3.94398400	1.05610300	8.81628700	0.82410200	0.78163400	5.94091900	-1.62368100	7.73173200	11.64780900	1.37586000	11.75482500
1831	18.30000000	9.31651000	0.93474300	4.92429600	8.90585400	1.66246400	1.50081200	9.99815200	0.12444100	-0.09189800	9.23774600	-1.06966900	-0.01757200	9.72926600	-4.27281500	0.82883500	8.63668400	0.82637900	0.92469400	6.14867500	-1.41694700	7.75385200	12.02292800	1.21090700	10.59170100
1832	18.31000000	9.41474700	0.94129900	4.92588200	9.02310600	1.59365700	1.44144800	10.03948400	-0.61446600	0.54551700	9.17542100	-1.72422600	-0.40623900	10.01972400	-4.30430600	0.07054800	8.45732600	0.67397000	0.78615400	5.53374000	-1.69492400	8.07565700	11.24502400	0.11681500	8.46406700
1833	18.32000000	9.31406100	0.90348100	4.83832900	8.70984300	1.61487400	1.48296100	10.18474200	-1.06990500	0.96968400	9.23198300	-2.48205700	-0.70265900	9.77106300	-4.46972900	0.01515000	8.56851000	0.59841800	0.47353700	5.51227300	-1.41776600	8.21074700	12.69214900	-1.25221000	7.40420100
1834	18.33000000	9.12139500	0.87257600	4.79446900	8.43432100	1.70047300	1.47222100	10.10613200	-1.35704100	0.70954100	9.46591500	-3.20449600	-0.66394900	9.16947700	-4.65112000	-0.06717100	8.54331900	0.41417900	0.18334900	5.43766300	-1.21080500	8.37417400	14.99288600	-1.69365400	6.83801100
1835	18.34000000	8.98250000	0.87306400	4.88207700	8.34021000	1.59731100	1.45252500	10.05557900	-1.54247800	0.67380300	9.60032900	-4.03138000	-0.40828100	8.95262300	-4.83283000	-0.36993500	8.06921900	0.56673100	0.10077100	5.90620700	-1.60402900	7.90661400	14.89956900	-2.24123600	5.01844900
1836	18.35000000	8.92177500	0.84754900	4.77378700	8.44742700	1.34720100	1.27691000	9.59761200	-1.70652800	0.62530300	9.34460100	-3.99679200	-0.18325800	8.75488900	-4.07147300	-0.81707000	7.57348100	1.31417100	0.59680200	5.67595400	-1.78472100	7.74295000	14.62758900	-2.98367400	3.01958800
1837	18.36000000	8.81097600	0.75344000	4.82076000	8.45139000	1.19978300	1.34545900	9.81344900	-2.67026000	0.65037800	9.23454000	-4.17555000	0.07671300	8.74515600	-2.62290700	-0.02924700	7.66430200	2.43939500	1.17612400	5.46012300	-1.97399100	7.93722900	15.63768300	-3.12236900	2.02026400
1838	18.37000000	8.68462500	0.63621600	4.76692700	8.39260900	1.44975900	1.31634200	9.93201800	-3.73536500	1.17561400	9.19856900	-4.04746500	0.10702000	8.74532700	-1.85815300	0.72988500	8.02233700	3.18585600	1.60767200	5.21398400	-2.27573400	8.02979000	15.49847100	-3.06081300	0.95256200
1839	18.38000000	8.60775200	0.58899700	4.74004900	8.19599800	1.77313400	1.24282800	9.99560300	-4.40536500	1.43891000	9.51258500	-3.68653200	0.07203000	8.61036800	-1.81148500	1.00002400	8.15601800	3.28100700	1.57512100	5.24311500	-2.16483100	8.07428700	14.98554200	-2.59974700	0.44505200
1840	18.39000000	8.60456200	0.70632700	4.69926600	8.09717300	2.10000700	1.04719500	10.09544300	-4.61359600	1.42779000	9.74934000	-3.61509800	-0.05729700	8.35463000	-1.93137500	1.70608000	7.58141400	2.92811300	0.86724300	5.30512400	-1.81078100	8.31332900	14.47575500	-1.93497300	0.54965400
1841	18.40000000	8.64993100	0.82696300	4.80899000	8.13111100	2.34361800	0.87231900	10.19674000	-3.70744500	1.62499000	9.62467800	-3.66741700	0.22530200	8.11720700	-2.05740600	2.45478600	6.84719600	2.64081600	0.14317000	5.09117100	-1.79854100	8.37739400	13.23072800	-1.51495600	0.70453300
1842	18.41000000	8.67002100	0.81320000	4.80192800	8.15575800	2.62988000	0.56022800	10.12883500	-2.52375600	1.63204300	9.68267900	-3.71407100	0.51185700	7.88874400	-2.30667800	2.82917200	6.46105600	2.64580800	-0.12833900	5.33282500	-1.72770900	8.52448500	12.16287800	-1.38253800	1.31667900
1843	18.42000000	8.65170800	0.79684500	4.89404000	8.10592500	2.91092900	0.36908100	10.46305100	-1.92202500	1.57795000	9.70596400	-3.64683400	0.80290000	7.60310400	-2.76803400	2.88903800	6.47823200	2.53541500	-0.09562400	5.44817200	-1.81894500	8.30432600	11.69320800	-0.99994100	2.37400300
1844	18.43000000	8.60943000	0.79194100	5.01182300	8.20230500	3.09601500	0.24684600	10.57405900	-1.17425200	1.55896800	9.79461200	-3.06622900	0.78717800	7.38729500	-3.51188900	2.80271500	6.55950600	2.02168000	0.05640100	5.56496800	-1.48164100	8.71270600	6.77569800	-0.63954000	3.43440300
1845	18.44000000	8.66376100	0.81272200	5.02558000	8.35959800	3.09961000	0.43556200	10.89057700	-0.63143300	1.75559300	9.95389400	-2.78347600	0.86813300	8.45939100	-3.64636800	2.10701200	7.72100500	1.13709800	0.40211000	5.25937800	-2.39843500	8.69936800	11.84436200	-3.87819200	-6.34501900
1846	18.45000000	9.13192300	0.78894200	5.19031700	8.74001300	2.83718400	0.83428100	11.69062300	-1.26856000	1.56220800	10.00512800	-2.40537600	0.95641100	9.95895800	-3.02813700	1.95392500	8.84768500	0.69707500	0.75936500	5.56039100	-1.34125500	9.24816500	14.38494000	-4.26839100	-5.61040100
1847	18.46000000	9.67199200	0.86804300	5.21262400	9.32022300	2.28636400	1.62280400	12.39206300	-1.72868800	1.44341900	10.29427900	-2.41580300	1.01609900	10.98107400	-5.62114700	-1.43495100	11.81875900	0.77106200	1.13464900	4.29432300	-2.01338700	10.07119500	12.67760200	2.19842300	14.06699400
1848	18.47000000	10.66830300	0.97800900	5.17988800	10.28246800	1.36149800	3.35563800	14.46992700	-2.29001300	1.37110700	10.77328200	-2.58813000	0.63956800	13.21644200	-6.79027100	-5.24306400	17.45406100	1.38671900	0.69681100	5.17509800	-2.32272400	10.42658100	3.14593700	4.53216200	21.86858400
1849	18.48000000	12.75122800	1.29854100	5.65897300	11.57700100	-0.20695300	5.16368900	16.39981900	-3.99513900	0.63175700	12.08440300	-3.21133500	0.30551400	18.86226800	0.87189500	-1.39578500	19.90768000	1.56471700	-0.85460500	4.92116700	-2.70621500	11.11474700	6.32417000	2.62000700	15.72663600
